# xmcd
#
# Track frame offsets:
#	150
#	11103
#	23556
#	33942
#	45305
#	56473
#	67829
#	83171
#	107482
#	119654
#	132258
#	143770
#	156194
#	169276
#	184615
#
# Disc length: 2524 seconds
#
# Revision: 2
# Processed by: cddbd v1.5.2PL0 Copyright (c) Steve Scherf et al.
# Submitted via: EasyCDDAExtractor 11.1.0.1
#
DISCID=bb09da0f
DTITLE=Various Artist - Dance The Blues - The R&B Roots Of David Bowie {MOJO,
DTITLE=2018-08}
DYEAR=2018
DGENRE=Blues
TTITLE0=Little Richard - She's Got It
TTITLE1=Johnny Otis - Shake It
TTITLE2=Alan Freed - Right Now Right Now
TTITLE3=Bill Doggett - Hold It
TTITLE4=The Isley Brothers - Twist And Shout
TTITLE5=Hollywood Argyles - Sho' Know A Lot About Love
TTITLE6=Buddy Guy - Skippin'
TTITLE7=Louis Jordan - Saturday Night Fish Fry
TTITLE8=Earl Bostic - Flamingo
TTITLE9=Champion Jack Dupree - Junker Blues
TTITLE10=James Brown - Try Me!
TTITLE11=Elmore James - The Sun Is Shining
TTITLE12=Albert King - I Walked All Night Long
TTITLE13=John Lee Hooker - Tupelo Blues
TTITLE14=Stan Kenton - You And I And George
EXTD=YEAR: 2018
EXTT0=
EXTT1=
EXTT2=
EXTT3=
EXTT4=
EXTT5=
EXTT6=
EXTT7=
EXTT8=
EXTT9=
EXTT10=
EXTT11=
EXTT12=
EXTT13=
EXTT14=
PLAYORDER=
